<?xml version="1.0" standalone="no"?>
<!DOCTYPE svg PUBLIC "-//W3C//DTD SVG 20010904//EN"
 "http://www.w3.org/TR/2001/REC-SVG-20010904/DTD/svg10.dtd">
<svg version="1.0" xmlns="http://www.w3.org/2000/svg"
 width="448.000000pt" height="448.000000pt" viewBox="0 0 448.000000 448.000000"
 preserveAspectRatio="xMidYMid meet">
<metadata>
Created by potrace 1.14, written by Peter Selinger 2001-2017
</metadata>
<g transform="translate(0.000000,448.000000) scale(0.100000,-0.100000)"
fill="#000000" stroke="none">
<path d="M2136 4353 c-1 -1 -22 -5 -46 -8 -25 -4 -56 -9 -70 -11 -14 -3 -37
-6 -53 -8 -15 -2 -30 -6 -34 -10 -3 -3 -14 -6 -24 -6 -10 0 -30 -5 -46 -12
-32 -13 -52 -19 -70 -20 -7 -1 -13 -5 -13 -10 0 -5 -4 -6 -10 -3 -5 3 -10 2
-10 -2 0 -5 -10 -10 -22 -10 -13 -1 -27 -8 -33 -15 -9 -12 -17 -15 -50 -22 -5
-1 -27 -13 -47 -25 -20 -12 -41 -23 -45 -24 -4 -1 -16 -8 -26 -17 -10 -8 -19
-13 -20 -10 -2 3 -18 -11 -37 -30 -19 -19 -36 -34 -37 -32 -9 8 -23 0 -23 -14
0 -8 -4 -13 -8 -10 -11 6 -82 -57 -82 -73 0 -6 -4 -11 -10 -11 -5 0 -27 -19
-50 -42 -43 -46 -153 -188 -145 -188 3 0 -2 -8 -10 -17 -8 -10 -14 -20 -13
-23 2 -3 -7 -16 -19 -29 -12 -13 -20 -28 -17 -33 3 -4 -2 -11 -10 -14 -9 -3
-13 -10 -10 -15 3 -5 1 -9 -5 -9 -6 0 -8 -7 -5 -15 4 -8 1 -15 -6 -15 -6 0 -8
-5 -5 -10 3 -6 0 -13 -9 -16 -8 -3 -13 -14 -11 -25 2 -10 0 -19 -5 -19 -5 0
-7 -9 -5 -20 2 -11 0 -20 -6 -20 -5 0 -9 -9 -9 -20 0 -11 -6 -20 -12 -20 -10
0 -9 -3 1 -9 9 -6 10 -10 2 -12 -7 -3 -14 -18 -16 -34 -2 -17 -4 -30 -5 -30
-2 0 -10 -32 -16 -65 -16 -88 -24 -195 -23 -305 0 -38 0 -92 0 -120 0 -27 3
-57 6 -65 3 -8 7 -31 9 -50 5 -45 11 -95 19 -145 4 -22 7 -49 8 -60 2 -11 6
-26 10 -32 5 -7 6 -17 2 -22 -3 -5 0 -13 6 -16 5 -4 8 -13 5 -21 -3 -7 -1 -16
5 -20 5 -3 9 -13 8 -22 -1 -10 0 -20 1 -24 1 -5 3 -11 5 -15 1 -5 5 -15 8 -23
4 -8 8 -26 11 -40 2 -14 9 -37 14 -51 6 -15 8 -30 5 -33 -4 -3 -1 -6 5 -6 7 0
11 -3 11 -7 -1 -5 0 -11 1 -15 1 -5 3 -11 4 -15 5 -22 31 -93 49 -133 11 -25
21 -47 21 -50 5 -27 31 -90 38 -90 4 0 8 -8 8 -17 0 -10 7 -27 15 -37 8 -10
12 -23 9 -28 -3 -4 2 -11 10 -14 9 -3 16 -11 16 -18 0 -6 10 -29 21 -51 12
-22 35 -65 50 -95 16 -30 29 -50 29 -45 0 6 9 -9 20 -32 10 -24 24 -43 30 -43
5 0 9 -3 8 -7 -3 -11 35 -73 44 -73 4 0 8 -6 8 -13 0 -7 9 -23 20 -35 11 -12
20 -26 20 -31 0 -6 6 -14 13 -18 7 -4 21 -21 31 -38 11 -16 28 -37 38 -46 10
-9 18 -20 18 -25 0 -5 9 -16 20 -24 11 -8 20 -18 20 -23 0 -5 22 -32 50 -61
27 -28 61 -63 75 -77 l25 -27 -22 -7 c-13 -4 -29 -6 -35 -6 -7 1 -13 -3 -13
-9 0 -7 -8 -9 -19 -5 -11 3 -22 1 -26 -5 -3 -6 -11 -8 -16 -5 -5 4 -9 1 -9 -6
0 -7 -3 -9 -7 -6 -3 4 -13 1 -21 -6 -13 -10 -14 -9 -8 1 4 7 -8 4 -27 -7 -19
-11 -38 -17 -41 -14 -3 4 -6 1 -6 -5 0 -7 -3 -11 -7 -10 -10 3 -73 -30 -93
-47 -8 -8 -19 -15 -25 -17 -27 -7 -115 -95 -115 -114 0 -6 -7 -17 -15 -24 -8
-7 -12 -16 -9 -21 3 -5 1 -9 -5 -9 -5 0 -10 -8 -10 -17 -1 -10 -2 -43 -4 -73
-3 -62 20 -142 52 -178 12 -13 19 -28 16 -33 -3 -4 5 -11 19 -15 14 -3 28 -14
31 -24 3 -10 19 -23 35 -30 17 -7 30 -16 30 -20 0 -4 18 -13 40 -20 22 -7 40
-17 40 -22 0 -5 5 -6 10 -3 6 3 10 1 10 -4 0 -6 3 -10 8 -9 4 1 25 -6 47 -16
21 -9 47 -18 57 -19 10 -2 21 -6 24 -10 4 -4 20 -7 36 -7 15 0 28 -4 28 -8 0
-4 10 -9 23 -9 29 -2 82 -10 82 -13 0 -3 41 -9 100 -14 28 -2 50 -5 50 -6 0
-11 452 -16 545 -6 30 4 73 8 95 10 22 2 40 5 40 6 0 3 51 10 88 13 15 1 27 5
27 8 0 3 6 6 13 7 33 3 83 15 92 22 6 5 23 10 38 12 16 3 33 11 38 19 7 12 9
12 9 -1 0 -13 1 -13 10 0 5 8 10 11 10 7 0 -5 13 1 29 12 15 11 31 18 35 14 3
-3 6 -1 6 5 0 7 3 11 8 10 4 -2 24 7 45 19 20 12 40 24 43 25 15 7 100 94 97
99 -1 4 6 17 17 29 11 13 20 29 20 37 0 22 1 28 9 38 20 27 -6 205 -30 205 -6
0 -7 5 -4 10 3 6 1 10 -4 10 -6 0 -11 5 -11 11 0 13 -83 93 -102 97 -7 2 -20
10 -29 18 -8 8 -20 14 -26 14 -6 0 -13 4 -15 8 -4 10 -94 52 -111 52 -8 0 -17
3 -21 7 -4 5 -12 9 -17 9 -5 1 -11 3 -14 4 -3 1 -8 3 -12 5 -5 1 -20 5 -34 9
-14 4 -32 9 -40 10 -39 8 -49 18 -38 37 5 11 14 17 20 14 5 -4 9 0 9 9 0 8 20
34 45 58 24 24 45 49 45 56 0 6 7 12 17 12 9 0 14 3 10 6 -3 4 -1 12 6 19 7 7
21 25 31 39 11 15 30 39 43 54 13 15 38 50 55 77 18 28 37 53 43 57 5 4 7 8 3
8 -5 0 0 9 10 19 31 35 52 68 84 134 10 20 23 37 28 37 6 0 10 9 10 19 0 11 6
26 13 33 19 21 77 136 77 154 0 8 5 12 10 9 6 -3 10 2 10 12 0 10 7 31 15 47
8 15 15 37 15 47 0 11 4 19 9 19 11 0 32 56 24 64 -4 3 -1 6 5 6 7 0 12 9 12
19 0 11 5 23 10 26 6 4 8 11 5 16 -4 5 -1 9 5 9 6 0 9 3 7 8 -3 4 0 18 6 32
11 29 14 36 21 68 3 12 8 28 12 34 5 7 9 19 10 28 3 19 12 54 14 58 2 1 4 7 5
12 1 6 3 11 5 13 1 1 3 9 5 17 2 8 6 29 10 45 3 17 8 39 9 50 2 11 6 28 11 38
4 9 5 24 1 32 -3 8 -2 15 3 15 4 0 8 6 9 13 3 47 11 114 16 127 3 8 8 49 10
92 2 42 6 80 10 86 3 5 3 12 -1 16 -9 9 -9 186 0 186 5 0 5 5 1 11 -4 6 -8 37
-10 68 -2 31 -7 63 -10 71 -3 8 -8 34 -10 58 -2 24 -7 48 -11 55 -4 7 -9 23
-11 37 -2 13 -8 27 -14 31 -5 3 -8 8 -7 10 13 18 -104 279 -137 305 -8 6 -14
18 -14 27 0 8 -7 17 -15 21 -8 3 -15 10 -15 16 0 6 -11 22 -25 36 -14 14 -25
29 -25 33 0 8 -159 170 -214 219 -14 13 -17 13 -11 2 4 -8 -1 -6 -13 5 -31 29
-50 45 -56 45 -3 0 -30 16 -61 35 -30 19 -66 40 -80 45 -14 5 -49 21 -78 34
-52 23 -85 37 -99 41 -5 2 -9 3 -10 5 -2 1 -10 3 -18 5 -8 1 -45 10 -81 19
-37 10 -76 18 -88 19 -11 1 -21 4 -21 7 0 3 -15 6 -32 7 -51 3 -299 8 -302 6z
m289 -382 c28 -6 65 -15 84 -20 19 -6 38 -8 42 -5 5 3 9 1 9 -4 0 -5 6 -9 13
-9 14 -1 80 -26 87 -33 3 -3 19 -12 35 -20 84 -41 215 -138 215 -159 0 -6 4
-11 9 -11 5 0 30 -23 57 -51 75 -78 84 -88 84 -97 0 -5 11 -22 25 -38 14 -16
25 -37 25 -46 0 -10 5 -18 10 -18 6 0 10 -9 10 -20 0 -11 4 -20 9 -20 8 0 12
-9 26 -55 2 -5 10 -29 19 -52 8 -24 13 -43 9 -43 -3 0 -1 -6 5 -12 6 -7 13
-35 18 -63 8 -60 14 -396 6 -409 -3 -6 -7 -26 -8 -45 -2 -20 -6 -52 -9 -71 -3
-19 -7 -45 -7 -57 -1 -13 -5 -23 -8 -23 -4 0 -7 -12 -7 -27 -2 -47 -7 -73 -13
-73 -4 0 -7 -6 -7 -12 0 -7 -4 -26 -8 -43 -3 -16 -7 -36 -7 -42 -1 -7 -6 -13
-11 -13 -6 0 -8 -3 -4 -6 3 -3 -1 -23 -8 -44 -7 -21 -11 -41 -8 -44 4 -3 0 -6
-7 -6 -7 0 -11 -3 -8 -6 4 -3 0 -17 -7 -31 -8 -15 -12 -30 -9 -35 3 -4 0 -8
-6 -8 -6 0 -9 -4 -5 -9 3 -5 1 -12 -5 -16 -5 -3 -10 -15 -10 -26 0 -10 -5 -19
-11 -19 -6 0 -9 -7 -5 -15 3 -8 1 -15 -4 -15 -5 0 -12 -16 -16 -35 -3 -19 -10
-35 -15 -35 -5 0 -9 -3 -8 -7 2 -16 -14 -53 -22 -53 -5 0 -8 -3 -7 -7 1 -5 -3
-18 -10 -30 -7 -13 -9 -23 -5 -23 4 0 0 -5 -9 -11 -10 -5 -18 -16 -18 -23 0
-7 -9 -25 -21 -40 -11 -14 -18 -26 -14 -26 3 0 -6 -16 -21 -35 -14 -19 -23
-35 -20 -35 7 0 -4 -15 -36 -51 -10 -10 -16 -19 -12 -19 6 0 -48 -74 -58 -78
-5 -2 -8 -10 -8 -17 0 -8 -10 -21 -22 -29 -12 -9 -18 -16 -13 -16 6 0 1 -7 -9
-15 -11 -8 -17 -15 -13 -15 6 0 -16 -28 -65 -81 -10 -10 -18 -22 -18 -25 0 -9
-310 -314 -320 -314 -6 0 -10 -4 -10 -9 0 -5 -6 -8 -13 -7 -20 3 -57 32 -50
39 3 4 1 7 -6 7 -7 0 -50 38 -95 85 -46 46 -86 82 -90 78 -3 -3 -6 -1 -6 6 0
6 -24 36 -54 66 -30 30 -52 55 -49 55 2 0 -2 7 -9 15 -7 8 -24 29 -38 46 -14
17 -35 42 -48 55 -13 13 -20 24 -17 24 6 0 -6 16 -38 52 -10 11 -17 22 -14 24
3 3 -5 16 -17 29 -34 37 -47 55 -41 55 3 0 1 6 -5 13 -20 24 -62 91 -71 114
-5 13 -13 23 -19 23 -6 0 -8 5 -5 10 3 6 1 10 -4 10 -6 0 -11 9 -11 19 0 11
-3 21 -7 23 -9 4 -63 104 -63 117 0 5 -9 29 -20 55 -12 25 -21 49 -21 53 -1 5
-6 17 -12 28 -6 11 -12 23 -13 28 -1 4 -2 8 -4 10 -1 1 -3 9 -5 18 -1 9 -10
32 -18 50 -20 45 -37 99 -31 99 2 0 -2 14 -11 30 -9 17 -13 30 -11 30 3 0 -1
18 -9 39 -7 22 -11 42 -8 45 3 3 0 12 -7 21 -7 8 -9 15 -5 15 4 0 1 8 -6 17
-12 14 -12 16 0 8 11 -6 12 -5 5 6 -4 8 -9 23 -10 34 -1 11 -5 34 -8 50 -10
43 -18 113 -20 170 -1 28 -4 55 -7 60 -6 9 -4 100 1 100 1 0 4 38 6 85 5 109
5 113 14 125 4 6 6 18 5 28 -2 9 0 17 4 17 4 0 8 6 9 13 5 44 12 70 22 82 7 8
9 15 5 15 -4 0 -2 7 5 15 7 8 9 15 6 15 -4 0 1 12 12 28 10 15 24 42 31 60 8
17 17 32 22 32 5 0 9 6 9 14 0 7 7 19 15 26 9 7 13 15 11 17 -3 3 15 25 38 49
24 24 43 45 42 46 -1 2 18 22 41 44 24 23 43 40 43 37 0 -2 18 15 40 37 22 22
40 38 40 34 0 -3 15 5 34 19 18 15 40 28 47 29 8 2 17 7 20 11 3 5 12 10 20
11 8 2 31 10 52 20 82 36 106 44 111 38 3 -3 6 -1 6 4 0 5 11 10 25 10 14 1
33 5 43 9 9 4 37 9 61 11 24 2 45 5 47 6 6 7 214 -2 259 -11z m-471 -3252 c4
5 33 9 66 8 46 -2 63 -7 79 -24 11 -11 17 -24 14 -27 -4 -3 3 -6 15 -6 11 0
26 -8 31 -17 6 -10 11 -15 11 -11 0 8 26 -11 58 -42 21 -20 34 -19 55 4 9 10
17 16 17 12 0 -7 19 7 50 38 11 11 20 17 20 13 0 -3 13 7 30 23 16 16 45 32
64 36 36 6 168 -12 199 -28 12 -6 17 -5 17 4 0 8 3 9 8 3 4 -5 16 -11 27 -13
19 -3 44 -10 90 -28 11 -4 29 -9 39 -11 11 -2 25 -8 33 -14 7 -6 13 -8 13 -3
0 5 5 1 11 -9 6 -9 14 -15 19 -12 12 7 31 -28 22 -41 -4 -5 -13 -10 -21 -12
-8 -2 -32 -12 -54 -23 -23 -10 -47 -19 -54 -19 -7 0 -13 -4 -13 -8 0 -4 -8 -8
-17 -9 -10 0 -29 -4 -43 -8 -14 -3 -29 -7 -35 -8 -5 -2 -16 -7 -24 -11 -10 -7
-12 -5 -6 3 6 10 3 11 -13 2 -23 -12 -81 -23 -134 -24 -21 -1 -38 -3 -38 -6 0
-6 -137 -13 -240 -13 -66 0 -208 9 -270 17 -25 3 -54 6 -65 8 -11 1 -24 5 -30
8 -5 3 -20 4 -32 3 -13 0 -23 2 -23 6 0 4 -6 7 -12 7 -44 3 -68 8 -68 15 0 4
-3 7 -7 7 -5 -1 -10 0 -13 1 -3 1 -12 3 -21 5 -9 1 -38 13 -65 25 -27 13 -52
22 -56 22 -4 -1 -12 7 -18 18 -6 11 -7 20 -2 20 4 0 18 9 30 20 12 12 22 18
22 14 0 -3 7 -1 15 6 8 7 15 10 15 6 0 -4 13 0 29 8 16 9 31 12 35 9 3 -4 6 0
6 7 0 7 3 11 6 7 8 -7 67 13 76 27 5 7 8 7 8 -2 0 -7 5 -10 11 -6 6 3 28 9 48
11 20 3 40 9 45 14 6 5 15 4 22 -2 8 -6 14 -7 18 0z"/>
<path d="M2113 3577 c-21 -4 -45 -10 -53 -14 -8 -3 -21 -5 -29 -4 -8 1 -17 -2
-20 -8 -4 -6 -16 -12 -28 -14 -12 -1 -28 -9 -37 -16 -9 -7 -16 -10 -16 -6 0 5
-8 1 -18 -8 -10 -10 -22 -14 -25 -10 -4 3 -7 -1 -7 -10 0 -11 -5 -14 -17 -10
-10 4 -14 2 -9 -5 3 -6 -2 -13 -13 -17 -11 -3 -22 -12 -25 -20 -3 -8 -13 -15
-21 -15 -9 0 -14 -4 -11 -9 3 -5 -4 -11 -16 -14 -12 -4 -19 -9 -15 -13 3 -4
-5 -15 -18 -26 -14 -11 -25 -24 -25 -30 0 -6 -8 -17 -17 -24 -10 -7 -18 -16
-18 -21 -1 -14 -39 -88 -49 -95 -6 -4 -8 -10 -4 -13 3 -3 -3 -30 -14 -58 -30
-81 -30 -247 1 -357 13 -47 30 -92 38 -101 7 -9 10 -19 6 -22 -3 -4 -1 -7 5
-7 7 0 12 -6 12 -13 0 -7 9 -23 20 -35 11 -12 20 -24 20 -26 0 -13 90 -111 90
-100 0 5 5 1 11 -8 5 -10 17 -18 25 -18 8 0 12 -4 9 -10 -3 -5 3 -10 14 -10
12 0 21 -4 21 -10 0 -5 23 -21 50 -35 28 -14 50 -23 50 -19 0 3 7 -2 16 -10 8
-9 20 -14 25 -10 6 3 16 1 23 -5 18 -15 82 -23 181 -23 103 -1 145 3 145 13 0
4 8 6 18 4 9 -1 23 2 30 8 6 5 12 7 12 3 0 -4 13 0 29 8 16 9 31 12 35 9 3 -4
6 -1 6 6 0 7 5 9 10 6 6 -3 10 -1 10 5 0 6 5 8 10 5 6 -3 10 -1 10 4 0 6 6 11
13 11 7 0 23 9 35 20 12 11 25 20 29 20 13 0 108 91 106 101 -2 5 1 9 6 9 9 0
81 105 86 124 1 6 10 29 19 50 10 22 19 49 20 61 1 11 5 26 9 32 4 6 8 27 9
47 2 20 7 36 11 36 4 0 3 8 -2 18 -6 11 -6 24 0 35 6 9 6 17 2 17 -4 0 -9 21
-10 48 -2 47 -21 139 -32 157 -3 6 -6 13 -7 18 -1 4 -3 9 -4 12 -3 6 -5 12
-15 43 -4 12 -12 22 -17 22 -5 0 -6 5 -3 10 3 6 2 10 -3 10 -5 0 -15 14 -22
30 -7 17 -28 43 -46 60 -19 16 -34 34 -34 40 0 5 -3 10 -7 10 -5 0 -22 14 -40
30 -18 17 -36 30 -41 30 -5 0 -17 9 -27 20 -10 11 -21 18 -24 15 -4 -2 -20 5
-37 16 -16 10 -37 19 -46 19 -9 0 -23 6 -30 13 -7 6 -22 13 -33 14 -11 2 -38
6 -59 9 -59 9 -190 10 -233 1z m240 -393 c58 -29 107 -73 107 -96 0 -9 5 -18
12 -20 29 -10 51 -171 26 -196 -7 -7 -9 -12 -5 -12 10 0 -26 -70 -51 -97 -10
-13 -22 -20 -26 -16 -3 3 -6 -1 -6 -9 0 -15 -86 -65 -102 -60 -5 1 -8 -2 -8
-6 0 -12 -132 -7 -156 6 -12 6 -24 8 -28 5 -3 -3 -6 -1 -6 5 0 7 -6 12 -12 12
-15 1 -104 80 -91 80 4 0 -1 7 -11 15 -11 8 -16 15 -12 15 5 0 4 6 -1 13 -18
23 -35 106 -29 139 3 18 8 44 10 57 2 13 9 27 16 31 6 4 10 10 8 13 -1 4 5 15
14 26 9 11 14 22 11 24 -2 3 5 8 16 12 12 3 21 10 21 16 0 5 17 20 38 34 73
48 181 52 265 9z"/>
</g>
</svg>
